{
  "accessors": [
    {
      "bufferView": 2,
      "componentType": 5126,
      "count": 65534,
      "max": [
        0.8643747568130493,
        0.9152942895889282,
        0.10000050067901611
      ],
      "min": [
        -0.8643747568130493,
        -1.0000001192092896,
        0.0
      ],
      "type": "VEC3"
    },
    {
      "bufferView": 2,
      "byteOffset": 786408,
      "componentType": 5126,
      "count": 65534,
      "max": [
        1.0,
        1.0,
        1.0
      ],
      "min": [
        -1.0,
        -1.0,
        -1.0
      ],
      "type": "VEC3"
    },
    {
      "bufferView": 1,
      "componentType": 5126,
      "count": 65534,
      "max": [
        0.5029412508010864,
        0.9576472640037537
      ],
      "min": [
        0.0,
        0.0
      ],
      "type": "VEC2"
    },
    {
      "bufferView": 0,
      "componentType": 5125,
      "count": 154869,
      "type": "SCALAR"
    },
    {
      "bufferView": 2,
      "byteOffset": 1572816,
      "componentType": 5126,
      "count": 65532,
      "max": [
        0.005882366560399532,
        0.9152942299842834,
        0.10000050067901611
      ],
      "min": [
        -0.8643747568130493,
        -1.0000001192092896,
        0.0
      ],
      "type": "VEC3"
    },
    {
      "bufferView": 2,
      "byteOffset": 2359200,
      "componentType": 5126,
      "count": 65532,
      "max": [
        1.0,
        1.0,
        1.0
      ],
      "min": [
        -1.0,
        -1.0,
        -1.0
      ],
      "type": "VEC3"
    },
    {
      "bufferView": 1,
      "byteOffset": 524272,
      "componentType": 5126,
      "count": 65532,
      "max": [
        0.5029412508010864,
        0.9576472640037537
      ],
      "min": [
        0.0,
        0.0
      ],
      "type": "VEC2"
    },
    {
      "bufferView": 0,
      "byteOffset": 619476,
      "componentType": 5125,
      "count": 108495,
      "type": "SCALAR"
    },
    {
      "bufferView": 2,
      "byteOffset": 3145584,
      "componentType": 5126,
      "count": 65534,
      "max": [
        0.8643746376037598,
        0.9152942299842834,
        0.10000050067901611
      ],
      "min": [
        -0.8643747568130493,
        -1.0000001192092896,
        0.0
      ],
      "type": "VEC3"
    },
    {
      "bufferView": 2,
      "byteOffset": 3931992,
      "componentType": 5126,
      "count": 65534,
      "max": [
        1.0,
        1.0,
        1.0
      ],
      "min": [
        -1.0,
        -1.0,
        -1.0
      ],
      "type": "VEC3"
    },
    {
      "bufferView": 1,
      "byteOffset": 1048528,
      "componentType": 5126,
      "count": 65534,
      "max": [
        0.5029412508010864,
        0.9576472640037537
      ],
      "min": [
        0.0,
        0.0
      ],
      "type": "VEC2"
    },
    {
      "bufferView": 0,
      "byteOffset": 1053456,
      "componentType": 5125,
      "count": 103446,
      "type": "SCALAR"
    },
    {
      "bufferView": 2,
      "byteOffset": 4718400,
      "componentType": 5126,
      "count": 61219,
      "max": [
        0.8643747568130493,
        0.9152942895889282,
        0.10000050067901611
      ],
      "min": [
        -0.005882366560399532,
        -1.0000001192092896,
        0.0
      ],
      "type": "VEC3"
    },
    {
      "bufferView": 2,
      "byteOffset": 5453028,
      "componentType": 5126,
      "count": 61219,
      "max": [
        1.0,
        1.0,
        1.0
      ],
      "min": [
        -1.0,
        -1.0,
        -1.0
      ],
      "type": "VEC3"
    },
    {
      "bufferView": 1,
      "byteOffset": 1572800,
      "componentType": 5126,
      "count": 61219,
      "max": [
        0.5029412508010864,
        0.9576472640037537
      ],
      "min": [
        0.0,
        0.0
      ],
      "type": "VEC2"
    },
    {
      "bufferView": 0,
      "byteOffset": 1467240,
      "componentType": 5125,
      "count": 94206,
      "type": "SCALAR"
    },
    {
      "bufferView": 2,
      "byteOffset": 6187656,
      "componentType": 5126,
      "count": 65532,
      "max": [
        13.961424827575684,
        11.674579620361328,
        0.14092160761356354
      ],
      "min": [
        6.930169105529785,
        -2.029247760772705,
        -0.23012647032737732
      ],
      "type": "VEC3"
    },
    {
      "bufferView": 2,
      "byteOffset": 6974040,
      "componentType": 5126,
      "count": 65532,
      "max": [
        1.0,
        1.0,
        1.0
      ],
      "min": [
        -1.0,
        -1.0,
        -1.0
      ],
      "type": "VEC3"
    },
    {
      "bufferView": 1,
      "byteOffset": 2062552,
      "componentType": 5126,
      "count": 65532,
      "max": [
        0.8750001788139343,
        1.0000001192092896
      ],
      "min": [
        0.1249999925494194,
        0.0
      ],
      "type": "VEC2"
    },
    {
      "bufferView": 0,
      "byteOffset": 1844064,
      "componentType": 5125,
      "count": 114633,
      "type": "SCALAR"
    },
    {
      "bufferView": 2,
      "byteOffset": 7760424,
      "componentType": 5126,
      "count": 65533,
      "max": [
        13.964325904846191,
        14.205740928649902,
        1.0432536602020264
      ],
      "min": [
        -0.06050253286957741,
        -2.029247760772705,
        -0.009707130491733551
      ],
      "type": "VEC3"
    },
    {
      "bufferView": 2,
      "byteOffset": 8546820,
      "componentType": 5126,
      "count": 65533,
      "max": [
        1.0,
        1.0,
        1.0
      ],
      "min": [
        -1.0,
        -1.0,
        -1.0
      ],
      "type": "VEC3"
    },
    {
      "bufferView": 1,
      "byteOffset": 2586808,
      "componentType": 5126,
      "count": 65533,
      "max": [
        0.8750001192092896,
        1.0000001192092896
      ],
      "min": [
        0.1249999925494194,
        0.0
      ],
      "type": "VEC2"
    },
    {
      "bufferView": 0,
      "byteOffset": 2302596,
      "componentType": 5125,
      "count": 108852,
      "type": "SCALAR"
    },
    {
      "bufferView": 2,
      "byteOffset": 9333216,
      "componentType": 5126,
      "count": 65532,
      "max": [
        6.93017053604126,
        14.205740928649902,
        1.0432536602020264
      ],
      "min": [
        -0.10398504137992859,
        -2.029247760772705,
        -0.009707130491733551
      ],
      "type": "VEC3"
    },
    {
      "bufferView": 2,
      "byteOffset": 10119600,
      "componentType": 5126,
      "count": 65532,
      "max": [
        1.0,
        1.0,
        1.0
      ],
      "min": [
        -1.0,
        -1.0,
        -1.0
      ],
      "type": "VEC3"
    },
    {
      "bufferView": 1,
      "byteOffset": 3111072,
      "componentType": 5126,
      "count": 65532,
      "max": [
        0.8750001192092896,
        1.0000001192092896
      ],
      "min": [
        0.1249999925494194,
        0.0
      ],
      "type": "VEC2"
    },
    {
      "bufferView": 0,
      "byteOffset": 2738004,
      "componentType": 5125,
      "count": 99645,
      "type": "SCALAR"
    },
    {
      "bufferView": 2,
      "byteOffset": 10905984,
      "componentType": 5126,
      "count": 65532,
      "max": [
        6.930170059204102,
        15.545042991638184,
        1.0432536602020264
      ],
      "min": [
        -1.5132441520690918,
        -3.317462921142578,
        -0.10285107046365738
      ],
      "type": "VEC3"
    },
    {
      "bufferView": 2,
      "byteOffset": 11692368,
      "componentType": 5126,
      "count": 65532,
      "max": [
        1.0,
        1.0,
        1.0
      ],
      "min": [
        -1.0,
        -1.0,
        -1.0
      ],
      "type": "VEC3"
    },
    {
      "bufferView": 1,
      "byteOffset": 3635328,
      "componentType": 5126,
      "count": 65532,
      "max": [
        0.8750001192092896,
        1.0000001192092896
      ],
      "min": [
        0.0,
        0.0
      ],
      "type": "VEC2"
    },
    {
      "bufferView": 0,
      "byteOffset": 3136584,
      "componentType": 5125,
      "count": 114711,
      "type": "SCALAR"
    },
    {
      "bufferView": 2,
      "byteOffset": 12478752,
      "componentType": 5126,
      "count": 65532,
      "max": [
        8.809931755065918,
        15.545044898986816,
        1.0195188522338867
      ],
      "min": [
        -1.7107179164886475,
        -3.317462921142578,
        -0.10285107046365738
      ],
      "type": "VEC3"
    },
    {
      "bufferView": 2,
      "byteOffset": 13265136,
      "componentType": 5126,
      "count": 65532,
      "max": [
        1.0,
        1.0,
        1.0
      ],
      "min": [
        -1.0,
        -1.0,
        -1.0
      ],
      "type": "VEC3"
    },
    {
      "bufferView": 1,
      "byteOffset": 4159584,
      "componentType": 5126,
      "count": 65532,
      "max": [
        0.8750020265579224,
        1.0000001192092896
      ],
      "min": [
        0.0,
        0.0
      ],
      "type": "VEC2"
    },
    {
      "bufferView": 0,
      "byteOffset": 3595428,
      "componentType": 5125,
      "count": 98532,
      "type": "SCALAR"
    },
    {
      "bufferView": 2,
      "byteOffset": 14051520,
      "componentType": 5126,
      "count": 65533,
      "max": [
        6.93017053604126,
        15.545042991638184,
        1.0440707206726074
      ],
      "min": [
        -1.5132441520690918,
        -3.317462921142578,
        -0.10285107046365738
      ],
      "type": "VEC3"
    },
    {
      "bufferView": 2,
      "byteOffset": 14837916,
      "componentType": 5126,
      "count": 65533,
      "max": [
        1.0,
        1.0,
        1.0
      ],
      "min": [
        -1.0,
        -1.0,
        -1.0
      ],
      "type": "VEC3"
    },
    {
      "bufferView": 1,
      "byteOffset": 4683840,
      "componentType": 5126,
      "count": 65533,
      "max": [
        0.8750001192092896,
        1.0000001192092896
      ],
      "min": [
        0.0,
        0.0
      ],
      "type": "VEC2"
    },
    {
      "bufferView": 0,
      "byteOffset": 3989556,
      "componentType": 5125,
      "count": 103233,
      "type": "SCALAR"
    },
    {
      "bufferView": 2,
      "byteOffset": 15624312,
      "componentType": 5126,
      "count": 65532,
      "max": [
        15.57105827331543,
        15.545044898986816,
        1.0195188522338867
      ],
      "min": [
        2.9420275688171387,
        -3.317462921142578,
        -0.23012647032737732
      ],
      "type": "VEC3"
    },
    {
      "bufferView": 2,
      "byteOffset": 16410696,
      "componentType": 5126,
      "count": 65532,
      "max": [
        1.0,
        1.0,
        1.0
      ],
      "min": [
        -1.0,
        -1.0,
        -1.0
      ],
      "type": "VEC3"
    },
    {
      "bufferView": 1,
      "byteOffset": 5208104,
      "componentType": 5126,
      "count": 65532,
      "max": [
        0.8750020265579224,
        1.0000001192092896
      ],
      "min": [
        0.0,
        0.0
      ],
      "type": "VEC2"
    },
    {
      "bufferView": 0,
      "byteOffset": 4402488,
      "componentType": 5125,
      "count": 98574,
      "type": "SCALAR"
    },
    {
      "bufferView": 2,
      "byteOffset": 17197080,
      "componentType": 5126,
      "count": 65532,
      "max": [
        15.57105827331543,
        15.545044898986816,
        1.0440707206726074
      ],
      "min": [
        6.930169582366943,
        -3.317462921142578,
        -0.10285107046365738
      ],
      "type": "VEC3"
    },
    {
      "bufferView": 2,
      "byteOffset": 17983464,
      "componentType": 5126,
      "count": 65532,
      "max": [
        1.0,
        1.0,
        1.0
      ],
      "min": [
        -1.0,
        -1.0,
        -1.0
      ],
      "type": "VEC3"
    },
    {
      "bufferView": 1,
      "byteOffset": 5732360,
      "componentType": 5126,
      "count": 65532,
      "max": [
        0.8750020265579224,
        1.0000001192092896
      ],
      "min": [
        0.0,
        0.0
      ],
      "type": "VEC2"
    },
    {
      "bufferView": 0,
      "byteOffset": 4796784,
      "componentType": 5125,
      "count": 98544,
      "type": "SCALAR"
    },
    {
      "bufferView": 2,
      "byteOffset": 18769848,
      "componentType": 5126,
      "count": 65533,
      "max": [
        13.964325904846191,
        14.205740928649902,
        1.0440707206726074
      ],
      "min": [
        6.930169105529785,
        -2.029247760772705,
        0.8926247358322144
      ],
      "type": "VEC3"
    },
    {
      "bufferView": 2,
      "byteOffset": 19556244,
      "componentType": 5126,
      "count": 65533,
      "max": [
        1.0,
        1.0,
        1.0
      ],
      "min": [
        -1.0,
        -1.0,
        -1.0
      ],
      "type": "VEC3"
    },
    {
      "bufferView": 1,
      "byteOffset": 6256616,
      "componentType": 5126,
      "count": 65533,
      "max": [
        0.8750001788139343,
        1.0000001192092896
      ],
      "min": [
        0.1249999925494194,
        0.0
      ],
      "type": "VEC2"
    },
    {
      "bufferView": 0,
      "byteOffset": 5190960,
      "componentType": 5125,
      "count": 114663,
      "type": "SCALAR"
    },
    {
      "bufferView": 2,
      "byteOffset": 20342640,
      "componentType": 5126,
      "count": 5843,
      "max": [
        10.918312072753906,
        11.674579620361328,
        1.0432536602020264
      ],
      "min": [
        6.930169105529785,
        3.6586661338806152,
        0.8926247358322144
      ],
      "type": "VEC3"
    },
    {
      "bufferView": 2,
      "byteOffset": 20412756,
      "componentType": 5126,
      "count": 5843,
      "max": [
        1.0,
        1.0,
        1.0
      ],
      "min": [
        -1.0,
        -1.0,
        -1.0
      ],
      "type": "VEC3"
    },
    {
      "bufferView": 1,
      "byteOffset": 6780880,
      "componentType": 5126,
      "count": 5843,
      "max": [
        0.8750001192092896,
        1.0000001192092896
      ],
      "min": [
        0.1249999925494194,
        0.0
      ],
      "type": "VEC2"
    },
    {
      "bufferView": 0,
      "byteOffset": 5649612,
      "componentType": 5125,
      "count": 8787,
      "type": "SCALAR"
    }
  ],
  "asset": {
    "extras": {
      "author": "Luall_Studio (https://sketchfab.com/luis_gustavo)",
      "license": "CC-BY-4.0 (http://creativecommons.org/licenses/by/4.0/)",
      "source": "https://sketchfab.com/3d-models/pacman-map-468ef64725ab49dfada6d1afc2da19b2",
      "title": "Pacman Map"
    },
    "generator": "Sketchfab-16.53.0",
    "version": "2.0"
  },
  "bufferViews": [
    {
      "buffer": 0,
      "byteLength": 5684760,
      "name": "floatBufferViews",
      "target": 34963
    },
    {
      "buffer": 0,
      "byteLength": 6827624,
      "byteOffset": 5684760,
      "byteStride": 8,
      "name": "floatBufferViews",
      "target": 34962
    },
    {
      "buffer": 0,
      "byteLength": 20482872,
      "byteOffset": 12512384,
      "byteStride": 12,
      "name": "floatBufferViews",
      "target": 34962
    }
  ],
  "buffers": [
    {
      "byteLength": 32995256,
      "uri": "scene.bin"
    }
  ],
  "extensionsUsed": [
    "KHR_materials_specular",
    "KHR_materials_emissive_strength"
  ],
  "materials": [
    {
      "doubleSided": true,
      "extensions": {
        "KHR_materials_specular": {
          "specularColorFactor": [
            1.0,
            1.0,
            1.0
          ],
          "specularFactor": 1.0
        }
      },
      "name": "Materiais",
      "pbrMetallicRoughness": {
        "baseColorFactor": [
          0.004435577599350029,
          0.004435577599350029,
          0.004435577599350029,
          1.0
        ],
        "roughnessFactor": 0.6699606004779016
      }
    },
    {
      "doubleSided": true,
      "emissiveFactor": [
        0.0,
        0.006072930432828711,
        1.0
      ],
      "extensions": {
        "KHR_materials_emissive_strength": {
          "emissiveStrength": 1.9627558992880116
        }
      },
      "name": "Materiais.001",
      "pbrMetallicRoughness": {
        "baseColorFactor": [
          0.0,
          0.01374380000000007,
          0.7999999999999999,
          1.0
        ],
        "metallicFactor": 0.0,
        "roughnessFactor": 0.7733235442545403
      }
    }
  ],
  "meshes": [
    {
      "name": "Plano_Materiais_0",
      "primitives": [
        {
          "attributes": {
            "NORMAL": 1,
            "POSITION": 0,
            "TEXCOORD_0": 2
          },
          "indices": 3,
          "material": 0,
          "mode": 4
        }
      ]
    },
    {
      "name": "Plano_Materiais_0",
      "primitives": [
        {
          "attributes": {
            "NORMAL": 5,
            "POSITION": 4,
            "TEXCOORD_0": 6
          },
          "indices": 7,
          "material": 0,
          "mode": 4
        }
      ]
    },
    {
      "name": "Plano_Materiais_0",
      "primitives": [
        {
          "attributes": {
            "NORMAL": 9,
            "POSITION": 8,
            "TEXCOORD_0": 10
          },
          "indices": 11,
          "material": 0,
          "mode": 4
        }
      ]
    },
    {
      "name": "Plano_Materiais_0",
      "primitives": [
        {
          "attributes": {
            "NORMAL": 13,
            "POSITION": 12,
            "TEXCOORD_0": 14
          },
          "indices": 15,
          "material": 0,
          "mode": 4
        }
      ]
    },
    {
      "name": "Cubo_Materiais.001_0",
      "primitives": [
        {
          "attributes": {
            "NORMAL": 17,
            "POSITION": 16,
            "TEXCOORD_0": 18
          },
          "indices": 19,
          "material": 1,
          "mode": 4
        }
      ]
    },
    {
      "name": "Cubo_Materiais.001_0",
      "primitives": [
        {
          "attributes": {
            "NORMAL": 21,
            "POSITION": 20,
            "TEXCOORD_0": 22
          },
          "indices": 23,
          "material": 1,
          "mode": 4
        }
      ]
    },
    {
      "name": "Cubo_Materiais.001_0",
      "primitives": [
        {
          "attributes": {
            "NORMAL": 25,
            "POSITION": 24,
            "TEXCOORD_0": 26
          },
          "indices": 27,
          "material": 1,
          "mode": 4
        }
      ]
    },
    {
      "name": "Cubo_Materiais.001_0",
      "primitives": [
        {
          "attributes": {
            "NORMAL": 29,
            "POSITION": 28,
            "TEXCOORD_0": 30
          },
          "indices": 31,
          "material": 1,
          "mode": 4
        }
      ]
    },
    {
      "name": "Cubo_Materiais.001_0",
      "primitives": [
        {
          "attributes": {
            "NORMAL": 33,
            "POSITION": 32,
            "TEXCOORD_0": 34
          },
          "indices": 35,
          "material": 1,
          "mode": 4
        }
      ]
    },
    {
      "name": "Cubo_Materiais.001_0",
      "primitives": [
        {
          "attributes": {
            "NORMAL": 37,
            "POSITION": 36,
            "TEXCOORD_0": 38
          },
          "indices": 39,
          "material": 1,
          "mode": 4
        }
      ]
    },
    {
      "name": "Cubo_Materiais.001_0",
      "primitives": [
        {
          "attributes": {
            "NORMAL": 41,
            "POSITION": 40,
            "TEXCOORD_0": 42
          },
          "indices": 43,
          "material": 1,
          "mode": 4
        }
      ]
    },
    {
      "name": "Cubo_Materiais.001_0",
      "primitives": [
        {
          "attributes": {
            "NORMAL": 45,
            "POSITION": 44,
            "TEXCOORD_0": 46
          },
          "indices": 47,
          "material": 1,
          "mode": 4
        }
      ]
    },
    {
      "name": "Cubo_Materiais.001_0",
      "primitives": [
        {
          "attributes": {
            "NORMAL": 49,
            "POSITION": 48,
            "TEXCOORD_0": 50
          },
          "indices": 51,
          "material": 1,
          "mode": 4
        }
      ]
    },
    {
      "name": "Cubo_Materiais.001_0",
      "primitives": [
        {
          "attributes": {
            "NORMAL": 53,
            "POSITION": 52,
            "TEXCOORD_0": 54
          },
          "indices": 55,
          "material": 1,
          "mode": 4
        }
      ]
    }
  ],
  "nodes": [
    {
      "children": [
        1
      ],
      "matrix": [
        1.0,
        0.0,
        0.0,
        0.0,
        0.0,
        2.220446049250313e-16,
        -1.0,
        0.0,
        0.0,
        1.0,
        2.220446049250313e-16,
        0.0,
        0.0,
        0.0,
        0.0,
        1.0
      ],
      "name": "Sketchfab_model"
    },
    {
      "children": [
        2
      ],
      "matrix": [
        1.0,
        0.0,
        0.0,
        0.0,
        0.0,
        0.0,
        1.0,
        0.0,
        0.0,
        -1.0,
        0.0,
        0.0,
        0.0,
        0.0,
        0.0,
        1.0
      ],
      "name": "4a75bbf63bdf4ac9a57aeb12dad90112.fbx"
    },
    {
      "children": [
        3,
        8
      ],
      "name": "RootNode"
    },
    {
      "children": [
        4,
        5,
        6,
        7
      ],
      "matrix": [
        1000.0,
        0.0,
        0.0,
        0.0,
        0.0,
        -0.0001629206793918314,
        -999.9999999999868,
        0.0,
        0.0,
        999.9999999999868,
        -0.0001629206793918314,
        0.0,
        0.0,
        0.0,
        0.0,
        1.0
      ],
      "name": "Plano"
    },
    {
      "mesh": 0,
      "name": "Plano_Materiais_0"
    },
    {
      "mesh": 1,
      "name": "Plano_Materiais_0"
    },
    {
      "mesh": 2,
      "name": "Plano_Materiais_0"
    },
    {
      "mesh": 3,
      "name": "Plano_Materiais_0"
    },
    {
      "children": [
        9,
        10,
        11,
        12,
        13,
        14,
        15,
        16,
        17,
        18
      ],
      "matrix": [
        100.0,
        0.0,
        0.0,
        0.0,
        -0.0,
        -1.629206793918314e-05,
        -99.99999999999868,
        0.0,
        0.0,
        99.99999999999868,
        -1.629206793918314e-05,
        0.0,
        -693.0169677734375,
        0.0,
        658.3983764648438,
        1.0
      ],
      "name": "Cubo"
    },
    {
      "mesh": 4,
      "name": "Cubo_Materiais.001_0"
    },
    {
      "mesh": 5,
      "name": "Cubo_Materiais.001_0"
    },
    {
      "mesh": 6,
      "name": "Cubo_Materiais.001_0"
    },
    {
      "mesh": 7,
      "name": "Cubo_Materiais.001_0"
    },
    {
      "mesh": 8,
      "name": "Cubo_Materiais.001_0"
    },
    {
      "mesh": 9,
      "name": "Cubo_Materiais.001_0"
    },
    {
      "mesh": 10,
      "name": "Cubo_Materiais.001_0"
    },
    {
      "mesh": 11,
      "name": "Cubo_Materiais.001_0"
    },
    {
      "mesh": 12,
      "name": "Cubo_Materiais.001_0"
    },
    {
      "mesh": 13,
      "name": "Cubo_Materiais.001_0"
    }
  ],
  "scene": 0,
  "scenes": [
    {
      "name": "Sketchfab_Scene",
      "nodes": [
        0
      ]
    }
  ]
}
